<mxfile host="65bd71144e">
    <diagram id="EIfy1rfxIiOnI024HXav" name="Страница 1">
        <mxGraphModel dx="521" dy="381" grid="1" gridSize="10" guides="1" tooltips="1" connect="1" arrows="1" fold="1" page="1" pageScale="1" pageWidth="827" pageHeight="1169" math="0" shadow="0">
            <root>
                <mxCell id="0"/>
                <mxCell id="1" parent="0"/>
                <mxCell id="2" value="" style="rounded=1;whiteSpace=wrap;html=1;" vertex="1" parent="1">
                    <mxGeometry x="160" y="240" width="200" height="350" as="geometry"/>
                </mxCell>
                <mxCell id="3" value="" style="rounded=1;whiteSpace=wrap;html=1;arcSize=13;" vertex="1" parent="1">
                    <mxGeometry x="160" y="260" width="200" height="50" as="geometry"/>
                </mxCell>
                <mxCell id="5" value="&lt;font style=&quot;font-size: 17px;&quot;&gt;Meals App&lt;/font&gt;" style="text;html=1;strokeColor=none;fillColor=none;align=center;verticalAlign=middle;whiteSpace=wrap;rounded=0;strokeWidth=8;" vertex="1" parent="1">
                    <mxGeometry x="205" y="265" width="110" height="40" as="geometry"/>
                </mxCell>
                <mxCell id="8" value="" style="rounded=1;whiteSpace=wrap;html=1;strokeWidth=1;fontSize=17;" vertex="1" parent="1">
                    <mxGeometry x="170" y="320" width="180" height="110" as="geometry"/>
                </mxCell>
                <mxCell id="24" style="edgeStyle=none;html=1;exitX=1;exitY=0.75;exitDx=0;exitDy=0;entryX=-0.01;entryY=0.731;entryDx=0;entryDy=0;entryPerimeter=0;fontSize=17;" edge="1" parent="1" source="9" target="20">
                    <mxGeometry relative="1" as="geometry"/>
                </mxCell>
                <mxCell id="9" value="" style="rounded=1;whiteSpace=wrap;html=1;strokeWidth=1;fontSize=17;" vertex="1" parent="1">
                    <mxGeometry x="170" y="440" width="180" height="110" as="geometry"/>
                </mxCell>
                <mxCell id="11" value="" style="rounded=1;whiteSpace=wrap;html=1;strokeWidth=1;fontSize=17;" vertex="1" parent="1">
                    <mxGeometry x="170" y="320" width="180" height="60" as="geometry"/>
                </mxCell>
                <mxCell id="12" value="Meals description" style="text;html=1;strokeColor=none;fillColor=none;align=center;verticalAlign=middle;whiteSpace=wrap;rounded=0;strokeWidth=1;fontSize=17;" vertex="1" parent="1">
                    <mxGeometry x="185" y="390" width="150" height="30" as="geometry"/>
                </mxCell>
                <mxCell id="13" value="" style="rounded=1;whiteSpace=wrap;html=1;strokeWidth=1;fontSize=17;" vertex="1" parent="1">
                    <mxGeometry x="170" y="440" width="180" height="60" as="geometry"/>
                </mxCell>
                <mxCell id="14" value="Meals description" style="text;html=1;strokeColor=none;fillColor=none;align=center;verticalAlign=middle;whiteSpace=wrap;rounded=0;strokeWidth=1;fontSize=17;" vertex="1" parent="1">
                    <mxGeometry x="185" y="510" width="150" height="30" as="geometry"/>
                </mxCell>
                <mxCell id="15" value="" style="rounded=1;whiteSpace=wrap;html=1;strokeWidth=1;fontSize=17;arcSize=50;" vertex="1" parent="1">
                    <mxGeometry x="160" y="560" width="200" height="30" as="geometry"/>
                </mxCell>
                <mxCell id="16" value="" style="ellipse;whiteSpace=wrap;html=1;aspect=fixed;strokeWidth=1;fontSize=17;" vertex="1" parent="1">
                    <mxGeometry x="180" y="566.25" width="17.5" height="17.5" as="geometry"/>
                </mxCell>
                <mxCell id="17" value="" style="ellipse;whiteSpace=wrap;html=1;aspect=fixed;strokeWidth=1;fontSize=17;" vertex="1" parent="1">
                    <mxGeometry x="230" y="566.25" width="17.5" height="17.5" as="geometry"/>
                </mxCell>
                <mxCell id="18" value="" style="ellipse;whiteSpace=wrap;html=1;aspect=fixed;strokeWidth=1;fontSize=17;" vertex="1" parent="1">
                    <mxGeometry x="280" y="566.25" width="17.5" height="17.5" as="geometry"/>
                </mxCell>
                <mxCell id="19" value="" style="ellipse;whiteSpace=wrap;html=1;aspect=fixed;strokeWidth=1;fontSize=17;" vertex="1" parent="1">
                    <mxGeometry x="330" y="566.25" width="17.5" height="17.5" as="geometry"/>
                </mxCell>
                <mxCell id="20" value="" style="rounded=1;whiteSpace=wrap;html=1;" vertex="1" parent="1">
                    <mxGeometry x="400" y="240" width="200" height="350" as="geometry"/>
                </mxCell>
                <mxCell id="21" value="" style="rounded=1;whiteSpace=wrap;html=1;arcSize=13;" vertex="1" parent="1">
                    <mxGeometry x="400" y="260" width="200" height="80" as="geometry"/>
                </mxCell>
                <mxCell id="22" value="&lt;span style=&quot;font-size: 17px;&quot;&gt;meal's image&lt;br&gt;&lt;br&gt;&lt;/span&gt;" style="text;html=1;strokeColor=none;fillColor=none;align=center;verticalAlign=middle;whiteSpace=wrap;rounded=0;strokeWidth=8;" vertex="1" parent="1">
                    <mxGeometry x="445" y="280" width="110" height="40" as="geometry"/>
                </mxCell>
                <mxCell id="23" value="&lt;h1&gt;Heading&lt;/h1&gt;&lt;p&gt;Lorem ipsum dolor sit amet, consectetur adipisicing elit, sed do eiusmod tempor incididunt ut labore et dolore magna aliqua.&lt;/p&gt;&lt;p&gt;askdljalksjdlakjsdlkajl...&lt;/p&gt;&lt;p&gt;&lt;br&gt;&lt;/p&gt;" style="text;html=1;strokeColor=none;fillColor=none;spacing=5;spacingTop=-20;whiteSpace=wrap;overflow=hidden;rounded=0;strokeWidth=1;fontSize=17;" vertex="1" parent="1">
                    <mxGeometry x="405" y="330" width="190" height="240" as="geometry"/>
                </mxCell>
                <mxCell id="25" value="" style="rounded=1;whiteSpace=wrap;html=1;" vertex="1" parent="1">
                    <mxGeometry x="160" y="610" width="200" height="350" as="geometry"/>
                </mxCell>
                <mxCell id="26" value="" style="rounded=1;whiteSpace=wrap;html=1;arcSize=13;" vertex="1" parent="1">
                    <mxGeometry x="160" y="630" width="200" height="50" as="geometry"/>
                </mxCell>
                <mxCell id="27" value="&lt;span style=&quot;font-size: 17px;&quot;&gt;Basket&lt;/span&gt;" style="text;html=1;strokeColor=none;fillColor=none;align=center;verticalAlign=middle;whiteSpace=wrap;rounded=0;strokeWidth=8;" vertex="1" parent="1">
                    <mxGeometry x="205" y="635" width="110" height="40" as="geometry"/>
                </mxCell>
                <mxCell id="28" value="" style="rounded=1;whiteSpace=wrap;html=1;strokeWidth=1;fontSize=17;" vertex="1" parent="1">
                    <mxGeometry x="170" y="700" width="180" height="40" as="geometry"/>
                </mxCell>
                <mxCell id="29" value="I" style="rounded=1;whiteSpace=wrap;html=1;strokeWidth=1;fontSize=17;" vertex="1" parent="1">
                    <mxGeometry x="173.75" y="705" width="30" height="30" as="geometry"/>
                </mxCell>
                <mxCell id="30" value="Spagetti" style="text;html=1;strokeColor=none;fillColor=none;align=center;verticalAlign=middle;whiteSpace=wrap;rounded=0;strokeWidth=1;fontSize=17;" vertex="1" parent="1">
                    <mxGeometry x="201.25" y="705" width="75" height="30" as="geometry"/>
                </mxCell>
                <mxCell id="32" value="" style="ellipse;whiteSpace=wrap;html=1;aspect=fixed;strokeWidth=1;fontSize=17;" vertex="1" parent="1">
                    <mxGeometry x="322.5" y="707.5" width="25" height="25" as="geometry"/>
                </mxCell>
                <mxCell id="31" value="+" style="text;html=1;strokeColor=none;fillColor=none;align=center;verticalAlign=middle;whiteSpace=wrap;rounded=0;strokeWidth=1;fontSize=17;" vertex="1" parent="1">
                    <mxGeometry x="327" y="712.5" width="16" height="15" as="geometry"/>
                </mxCell>
                <mxCell id="33" value="" style="ellipse;whiteSpace=wrap;html=1;aspect=fixed;strokeWidth=1;fontSize=17;" vertex="1" parent="1">
                    <mxGeometry x="290" y="707.5" width="25" height="25" as="geometry"/>
                </mxCell>
                <mxCell id="34" value="-" style="text;html=1;strokeColor=none;fillColor=none;align=center;verticalAlign=middle;whiteSpace=wrap;rounded=0;strokeWidth=1;fontSize=17;" vertex="1" parent="1">
                    <mxGeometry x="295" y="712.5" width="16" height="15" as="geometry"/>
                </mxCell>
                <mxCell id="43" value="" style="rounded=1;whiteSpace=wrap;html=1;strokeWidth=1;fontSize=17;" vertex="1" parent="1">
                    <mxGeometry x="170" y="750" width="180" height="40" as="geometry"/>
                </mxCell>
                <mxCell id="44" value="I" style="rounded=1;whiteSpace=wrap;html=1;strokeWidth=1;fontSize=17;" vertex="1" parent="1">
                    <mxGeometry x="173.75" y="755" width="30" height="30" as="geometry"/>
                </mxCell>
                <mxCell id="45" value="Spagetti" style="text;html=1;strokeColor=none;fillColor=none;align=center;verticalAlign=middle;whiteSpace=wrap;rounded=0;strokeWidth=1;fontSize=17;" vertex="1" parent="1">
                    <mxGeometry x="201.25" y="755" width="75" height="30" as="geometry"/>
                </mxCell>
                <mxCell id="46" value="" style="ellipse;whiteSpace=wrap;html=1;aspect=fixed;strokeWidth=1;fontSize=17;" vertex="1" parent="1">
                    <mxGeometry x="322.5" y="757.5" width="25" height="25" as="geometry"/>
                </mxCell>
                <mxCell id="47" value="+" style="text;html=1;strokeColor=none;fillColor=none;align=center;verticalAlign=middle;whiteSpace=wrap;rounded=0;strokeWidth=1;fontSize=17;" vertex="1" parent="1">
                    <mxGeometry x="327" y="762.5" width="16" height="15" as="geometry"/>
                </mxCell>
                <mxCell id="48" value="" style="ellipse;whiteSpace=wrap;html=1;aspect=fixed;strokeWidth=1;fontSize=17;" vertex="1" parent="1">
                    <mxGeometry x="290" y="757.5" width="25" height="25" as="geometry"/>
                </mxCell>
                <mxCell id="49" value="-" style="text;html=1;strokeColor=none;fillColor=none;align=center;verticalAlign=middle;whiteSpace=wrap;rounded=0;strokeWidth=1;fontSize=17;" vertex="1" parent="1">
                    <mxGeometry x="295" y="762.5" width="16" height="15" as="geometry"/>
                </mxCell>
                <mxCell id="50" value="" style="rounded=1;whiteSpace=wrap;html=1;strokeWidth=1;fontSize=17;" vertex="1" parent="1">
                    <mxGeometry x="170" y="800" width="180" height="40" as="geometry"/>
                </mxCell>
                <mxCell id="51" value="I" style="rounded=1;whiteSpace=wrap;html=1;strokeWidth=1;fontSize=17;" vertex="1" parent="1">
                    <mxGeometry x="173.75" y="805" width="30" height="30" as="geometry"/>
                </mxCell>
                <mxCell id="52" value="Spagetti" style="text;html=1;strokeColor=none;fillColor=none;align=center;verticalAlign=middle;whiteSpace=wrap;rounded=0;strokeWidth=1;fontSize=17;" vertex="1" parent="1">
                    <mxGeometry x="201.25" y="805" width="75" height="30" as="geometry"/>
                </mxCell>
                <mxCell id="53" value="" style="ellipse;whiteSpace=wrap;html=1;aspect=fixed;strokeWidth=1;fontSize=17;" vertex="1" parent="1">
                    <mxGeometry x="322.5" y="807.5" width="25" height="25" as="geometry"/>
                </mxCell>
                <mxCell id="54" value="+" style="text;html=1;strokeColor=none;fillColor=none;align=center;verticalAlign=middle;whiteSpace=wrap;rounded=0;strokeWidth=1;fontSize=17;" vertex="1" parent="1">
                    <mxGeometry x="327" y="812.5" width="16" height="15" as="geometry"/>
                </mxCell>
                <mxCell id="55" value="" style="ellipse;whiteSpace=wrap;html=1;aspect=fixed;strokeWidth=1;fontSize=17;" vertex="1" parent="1">
                    <mxGeometry x="290" y="807.5" width="25" height="25" as="geometry"/>
                </mxCell>
                <mxCell id="56" value="-" style="text;html=1;strokeColor=none;fillColor=none;align=center;verticalAlign=middle;whiteSpace=wrap;rounded=0;strokeWidth=1;fontSize=17;" vertex="1" parent="1">
                    <mxGeometry x="295" y="812.5" width="16" height="15" as="geometry"/>
                </mxCell>
            </root>
        </mxGraphModel>
    </diagram>
</mxfile>